<?xml version="1.0" encoding="UTF-8"?>
<svg id="Capa_1" data-name="Capa 1" xmlns="http://www.w3.org/2000/svg" version="1.1" viewBox="0 0 24 24">
  <defs>
    <style>
      .cls-1 {
        fill: none;
        stroke: #fff;
        stroke-linecap: round;
        stroke-linejoin: round;
        stroke-width: .5px;
      }

      .cls-2 {
        fill: #fff;
        stroke-width: 0px;
      }
    </style>
  </defs>
  <path class="cls-1" d="M15.8,9.8v-4.5c0-2.1-1.7-3.8-3.8-3.8s-3.8,1.7-3.8,3.8v4.5M19.6,9.2l1.3,12c0,.7-.5,1.2-1.1,1.2H4.3c-.6,0-1.1-.5-1.1-1.1,0,0,0,0,0-.1l1.3-12c0-.6.5-1,1.1-1h13c.6,0,1.1.4,1.1,1ZM8.6,9.8c0,.2-.2.4-.4.4s-.4-.2-.4-.4.2-.4.4-.4.4.2.4.4ZM16.1,9.8c0,.2-.2.4-.4.4s-.4-.2-.4-.4.2-.4.4-.4.4.2.4.4Z"/>
  <g>
    <path class="cls-1" d="M13.7,16.9c-.5-.5-1.1-.7-1.7-.7-.7,0-1.3.3-1.8.7"/>
    <g>
      <ellipse class="cls-2" cx="10.3" cy="14.1" rx=".5" ry=".5"/>
      <ellipse class="cls-2" cx="13.7" cy="14.1" rx=".5" ry=".5"/>
    </g>
  </g>
</svg>