<svg width="187" height="40" viewBox="0 0 187 40" fill="none" xmlns="http://www.w3.org/2000/svg">
<rect width="40" height="40" rx="10" fill="#2CD9CE"/>
<path d="M59.28 29.8096C58.3392 29.8096 57.416 29.6896 56.5088 29.4496C55.6016 29.2096 54.76 28.8656 53.984 28.416C53.208 27.968 52.5456 27.448 52 26.8576L54.8528 23.9712C55.3776 24.5408 56 24.9824 56.7216 25.2992C57.4432 25.616 58.2304 25.7744 59.0832 25.7744C59.6736 25.7744 60.1264 25.6864 60.4448 25.512C60.7616 25.3376 60.92 25.0976 60.92 24.7904C60.92 24.3968 60.728 24.096 60.3456 23.888C59.9632 23.68 59.4768 23.4944 58.8864 23.3312C58.296 23.168 57.6736 22.9872 57.0176 22.7904C56.3616 22.5936 55.7392 22.32 55.1488 21.9712C54.5584 21.6224 54.0768 21.1344 53.7056 20.512C53.3328 19.8896 53.1488 19.096 53.1488 18.1344C53.1488 17.1072 53.4112 16.216 53.936 15.4624C54.4608 14.7088 55.2032 14.112 56.1664 13.6752C57.128 13.2384 58.2544 13.0192 59.544 13.0192C60.8992 13.0192 62.152 13.2544 63.2992 13.7248C64.4464 14.1952 65.3824 14.8896 66.1024 15.808L63.2496 18.6944C62.7456 18.104 62.184 17.6896 61.56 17.448C60.936 17.208 60.3296 17.088 59.7392 17.088C59.1488 17.088 58.744 17.1696 58.4608 17.3344C58.176 17.4976 58.0352 17.7328 58.0352 18.04C58.0352 18.368 58.2208 18.6304 58.592 18.8272C58.9632 19.024 59.4448 19.1984 60.0352 19.352C60.6256 19.5056 61.248 19.6912 61.904 19.9088C62.56 20.128 63.1824 20.4224 63.7728 20.7936C64.3632 21.1648 64.8432 21.6624 65.216 22.2864C65.5872 22.9088 65.7728 23.7248 65.7728 24.7296C65.7728 26.2816 65.1872 27.5168 64.0176 28.4352C62.848 29.3536 61.2672 29.8128 59.2784 29.8128L59.28 29.8096Z" fill="white"/>
<path d="M83.2545 16.592C82.7297 15.6736 82.0129 14.936 81.1057 14.3776C80.1985 13.8208 79.1537 13.5408 77.9745 13.5408C76.7953 13.5408 75.6513 13.7984 74.6785 14.312C74.2481 14.5392 73.8609 14.8112 73.5137 15.1216V13.8688H68.4961V29.808H73.5137V20.7232C73.5137 20.1776 73.6337 19.6896 73.8737 19.264C74.1137 18.8368 74.4417 18.5104 74.8577 18.28C75.2721 18.0496 75.7537 17.936 76.3009 17.936C77.0881 17.936 77.7377 18.1936 78.2529 18.7072C78.7665 19.2208 79.0241 19.8928 79.0241 20.7248V29.8096H84.0417V19.6096C84.0417 18.5168 83.7793 17.5104 83.2545 16.592Z" fill="white"/>
<path d="M101.766 16.9856C101.078 15.784 100.131 14.8432 98.9295 14.1648C97.7263 13.488 96.3391 13.1488 94.7647 13.1488C93.1903 13.1488 91.6927 13.5088 90.4031 14.2304C89.1135 14.952 88.0911 15.9408 87.3375 17.1984C86.5839 18.456 86.2063 19.8832 86.2063 21.4784C86.2063 23.0736 86.5887 24.5072 87.3535 25.7744C88.1183 27.0432 89.1743 28.032 90.5183 28.7424C91.8623 29.4528 93.3983 29.808 95.1263 29.808C96.4591 29.808 97.6847 29.5792 98.7999 29.12C99.9151 28.6608 100.865 27.9728 101.653 27.0544L98.8975 24.2992C98.4159 24.8464 97.8591 25.256 97.2255 25.5296C96.5903 25.8032 95.8815 25.9392 95.0943 25.9392C94.2415 25.9392 93.5039 25.7584 92.8799 25.3984C92.2575 25.0384 91.7759 24.5248 91.4367 23.8576C91.3247 23.6368 91.2319 23.3984 91.1567 23.1472L102.571 23.12C102.657 22.7056 102.718 22.3392 102.752 22.0208C102.785 21.704 102.801 21.4032 102.801 21.1184C102.801 19.5664 102.457 18.1888 101.768 16.9856H101.766ZM92.7471 17.5264C93.3263 17.1664 94.0095 16.9856 94.7967 16.9856C95.5391 16.9856 96.1679 17.144 96.6831 17.4608C97.1967 17.7776 97.5855 18.2368 97.8479 18.8384C97.9583 19.0912 98.0463 19.3728 98.1135 19.6816L91.1567 19.7008C91.2239 19.472 91.3055 19.2544 91.4031 19.0512C91.7199 18.3952 92.1679 17.8864 92.7471 17.5264Z" fill="white"/>
<path d="M116.278 13.5424V14.8592C115.848 14.4512 115.352 14.1088 114.786 13.8368C113.922 13.4224 112.954 13.2128 111.883 13.2128C110.418 13.2128 109.112 13.5728 107.965 14.2944C106.818 15.016 105.909 16 105.243 17.2464C104.576 18.4928 104.243 19.9136 104.243 21.5104C104.243 23.1072 104.576 24.528 105.243 25.7744C105.91 27.0208 106.818 28.0048 107.965 28.7264C109.112 29.448 110.419 29.808 111.883 29.808C112.954 29.808 113.926 29.6 114.802 29.1856C115.363 28.9184 115.854 28.5856 116.277 28.1872V29.4816H121.197V13.5424H116.277H116.278ZM112.901 25.2832C112.222 25.2832 111.61 25.12 111.064 24.7904C110.517 24.4624 110.091 24.0144 109.786 23.4464C109.48 22.8784 109.326 22.2336 109.326 21.512C109.326 20.7904 109.485 20.1136 109.802 19.544C110.118 18.976 110.544 18.5328 111.08 18.216C111.616 17.8992 112.234 17.7408 112.933 17.7408C113.632 17.7408 114.25 17.8992 114.786 18.216C115.322 18.5328 115.736 18.976 116.032 19.544C116.326 20.1136 116.475 20.768 116.475 21.512C116.475 22.6048 116.147 23.5072 115.491 24.2176C114.835 24.928 113.971 25.2832 112.901 25.2832Z" fill="white"/>
<path d="M140.842 29.8096L134.685 21.384L140.514 13.8704H134.906L129.757 21V7H124.739V29.8096H129.757V22.128L134.938 29.8096H140.842Z" fill="white"/>
<path d="M156.469 16.9856C155.781 15.784 154.834 14.8432 153.632 14.1648C152.429 13.488 151.042 13.1488 149.467 13.1488C147.893 13.1488 146.395 13.5088 145.106 14.2304C143.814 14.952 142.794 15.9408 142.038 17.1984C141.285 18.456 140.907 19.8832 140.907 21.4784C140.907 23.0736 141.29 24.5072 142.054 25.7744C142.819 27.0432 143.875 28.032 145.219 28.7424C146.563 29.4528 148.099 29.808 149.827 29.808C151.16 29.808 152.386 29.5792 153.501 29.12C154.616 28.6608 155.566 27.9728 156.354 27.0544L153.598 24.2992C153.117 24.8464 152.56 25.256 151.926 25.5296C151.293 25.8032 150.582 25.9392 149.795 25.9392C148.942 25.9392 148.205 25.7584 147.581 25.3984C146.958 25.0384 146.477 24.5248 146.138 23.8576C146.026 23.6368 145.933 23.3984 145.858 23.1472L157.272 23.12C157.358 22.7056 157.419 22.3392 157.453 22.0208C157.486 21.704 157.502 21.4032 157.502 21.1184C157.502 19.5664 157.158 18.1888 156.469 16.9856ZM147.45 17.5264C148.029 17.1664 148.712 16.9856 149.499 16.9856C150.242 16.9856 150.87 17.144 151.386 17.4608C151.899 17.7776 152.288 18.2368 152.55 18.8384C152.661 19.0912 152.749 19.3728 152.816 19.6816L145.859 19.7008C145.926 19.472 146.008 19.2544 146.106 19.0512C146.422 18.3952 146.87 17.8864 147.45 17.5264Z" fill="white"/>
<path d="M171.062 13.8864C170.483 13.6576 169.81 13.5424 169.045 13.5424C167.296 13.5424 165.93 14.056 164.946 15.0832V13.8704H159.928V29.8096H164.946V21.0528C164.946 20.0256 165.192 19.2544 165.683 18.7408C166.174 18.2272 166.837 17.9696 167.667 17.9696C168.083 17.9696 168.454 18.0352 168.782 18.1664C169.11 18.2976 169.384 18.4832 169.602 18.7232L172.586 14.952C172.147 14.472 171.64 14.1152 171.061 13.8864H171.062Z" fill="white"/>
<path d="M179.374 29.8096C178.434 29.8096 177.51 29.6896 176.603 29.4496C175.696 29.2096 174.854 28.8656 174.078 28.416C173.302 27.968 172.64 27.448 172.094 26.8576L174.947 23.9712C175.472 24.5408 176.094 24.9824 176.816 25.2992C177.538 25.616 178.325 25.7744 179.178 25.7744C179.768 25.7744 180.221 25.6864 180.539 25.512C180.856 25.3376 181.014 25.0976 181.014 24.7904C181.014 24.3968 180.822 24.096 180.44 23.888C180.058 23.68 179.571 23.4944 178.981 23.3312C178.39 23.168 177.768 22.9872 177.112 22.7904C176.456 22.5936 175.834 22.32 175.243 21.9712C174.653 21.6224 174.171 21.1344 173.8 20.512C173.429 19.8896 173.242 19.096 173.242 18.1344C173.242 17.1072 173.504 16.216 174.029 15.4624C174.554 14.7088 175.296 14.112 176.259 13.6752C177.221 13.2384 178.347 13.0192 179.637 13.0192C180.992 13.0192 182.243 13.2544 183.392 13.7248C184.539 14.1952 185.475 14.8896 186.195 15.808L183.342 18.6944C182.838 18.104 182.277 17.6896 181.653 17.448C181.03 17.208 180.422 17.088 179.832 17.088C179.242 17.088 178.837 17.1696 178.554 17.3344C178.269 17.4976 178.126 17.7328 178.126 18.04C178.126 18.368 178.312 18.6304 178.685 18.8272C179.056 19.024 179.538 19.1984 180.128 19.352C180.718 19.5056 181.341 19.6912 181.997 19.9088C182.653 20.128 183.275 20.4224 183.866 20.7936C184.456 21.1648 184.936 21.6624 185.309 22.2864C185.68 22.9088 185.866 23.7248 185.866 24.7296C185.866 26.2816 185.28 27.5168 184.11 28.4352C182.941 29.3536 181.36 29.8128 179.371 29.8128L179.374 29.8096Z" fill="white"/>
<path d="M17.9473 24.4249C22.7589 24.7852 29.6558 24.5644 30.6325 16.3396C26.1721 21.0791 21.8358 19.5841 19.4806 21.4977C18.0393 22.6677 17.9473 23.8361 17.9473 24.4249Z" fill="white"/>
<path d="M16.5489 29.2793C17.7265 30.0153 25.3916 30.5627 26.2595 25.6008C21.9922 27.6601 17.7311 26.4288 17.725 26.484C17.5778 27.956 16.5474 29.2793 16.5474 29.2793H16.5489Z" fill="white"/>
<path d="M23.4826 12.0048C20.902 12.7991 18.2846 13.4921 15.7761 14.5486C12.6097 15.8811 10.6409 18.9416 11.6177 22.8746C12.1911 25.1854 11.8124 28.6062 10 30C10 30 13.7628 30.1396 14.7058 26.0318C15.9892 20.4427 15.6319 19.0106 20.994 17.6536C28.5779 15.7354 32.1874 12.7561 31.5817 7C29.6129 9.1206 26.652 11.0281 23.4811 12.0033L23.4826 12.0048Z" fill="white"/>
</svg>
