<svg width="40" height="40" viewBox="0 0 40 40" fill="none" xmlns="http://www.w3.org/2000/svg">
<rect width="40" height="40" rx="10" fill="black"/>
<path d="M17.9473 24.4248C22.7589 24.7851 29.6558 24.5643 30.6325 16.3395C26.1721 21.0791 21.8358 19.5841 19.4806 21.4977C18.0393 22.6676 17.9473 23.836 17.9473 24.4248Z" fill="white"/>
<path d="M16.5489 29.2793C17.7265 30.0153 25.3916 30.5627 26.2595 25.6008C21.9922 27.6601 17.7311 26.4288 17.725 26.484C17.5778 27.956 16.5474 29.2793 16.5474 29.2793H16.5489Z" fill="white"/>
<path d="M23.4826 12.0048C20.902 12.7991 18.2846 13.4921 15.7761 14.5486C12.6097 15.8811 10.6409 18.9416 11.6177 22.8746C12.1911 25.1854 11.8124 28.6062 10 30C10 30 13.7628 30.1396 14.7058 26.0318C15.9892 20.4427 15.6319 19.0106 20.994 17.6536C28.5779 15.7354 32.1874 12.7561 31.5817 7C29.6129 9.1206 26.652 11.0281 23.4811 12.0033L23.4826 12.0048Z" fill="white"/>
</svg>
